<?xml version="1.0" encoding="UTF-8" standalone="no"?>
<!DOCTYPE svg PUBLIC "-//W3C//DTD SVG 1.1//EN" "http://www.w3.org/Graphics/SVG/1.1/DTD/svg11.dtd">
<svg width="100%" height="100%" viewBox="0 0 925 925" version="1.1" xmlns="http://www.w3.org/2000/svg" xmlns:xlink="http://www.w3.org/1999/xlink" xml:space="preserve" xmlns:serif="http://www.serif.com/" style="fill-rule:evenodd;clip-rule:evenodd;stroke-linejoin:round;stroke-miterlimit:2;">
    <g transform="matrix(1,0,0,1,-311.851,-209.464)">
        <g id="Layer-3" serif:id="Layer 3">
            <g transform="matrix(462.386,462.386,462.386,-462.386,659.348,324.177)">
                <rect x="0" y="-0.248" width="0.496" height="0.496" style="fill:url(#_Linear1);"/>
            </g>
            <g transform="matrix(0.707107,0.707107,0.707107,-0.707107,1169.43,509.621)">
                <rect x="-162.228" y="-391.653" width="324.456" height="324.456" style="fill:rgb(145,145,145);"/>
            </g>
            <g transform="matrix(0.707107,0.707107,0.707107,-0.707107,703.504,509.621)">
                <rect x="-162.228" y="-391.653" width="324.456" height="324.456" style="fill:rgb(145,145,145);"/>
            </g>
            <g transform="matrix(462.386,462.386,462.386,-462.386,426.388,557.137)">
                <rect x="0.504" y="-0.248" width="0.496" height="0.496" style="fill:url(#_Linear2);"/>
            </g>
        </g>
        <g id="Layer-6" serif:id="Layer 6">
            <g transform="matrix(243.734,0,0,243.734,1111.13,751.977)">
            </g>
            <text x="442.077px" y="751.977px" style="font-family:'Helvetica';font-size:243.734px;fill:white;">M<tspan x="640.476px 908.097px " y="751.977px 751.977px "> M</tspan></text>
        </g>
        <g id="Layer-7" serif:id="Layer 7">
            <g transform="matrix(1,0,0,1,774.061,573.502)">
                <path d="M0,-262.185C-0.035,-262.186 0.035,-262.184 0,-262.185C-1.226,-262.214 -2.292,-254.353 -2.606,-253.167C-16.689,-200.099 -83.412,-124.589 -83.412,-83.383C-83.412,-37.316 -46.067,0.029 0,0.029C46.067,0.029 83.412,-37.316 83.412,-83.383C83.412,-124.589 16.691,-200.101 2.609,-253.168C2.306,-254.307 1.179,-262.159 0,-262.185" style="fill:white;fill-rule:nonzero;"/>
            </g>
            <g transform="matrix(61.5456,0,0,-61.5456,783.288,527.62)">
                <path d="M0.953,0.582C0.95,0.506 0.931,0.424 0.905,0.36C0.868,0.268 0.829,0.187 0.772,0.113C0.721,0.014 0.657,-0.077 0.578,-0.156C0.419,-0.317 0.215,-0.394 -0,-0.438C0.233,-0.566 0.588,-0.422 0.816,-0.1C0.996,0.154 1.044,0.447 0.959,0.647C0.959,0.625 0.956,0.604 0.953,0.582Z" style="fill:url(#_Linear3);fill-rule:nonzero;"/>
            </g>
            <g transform="matrix(1,0,0,1,840.712,562.297)">
                <path d="M0,-85.687C-0.024,-84.363 -2.68,-77.212 -2.895,-75.905C-3.097,-71.168 -4.245,-66.148 -5.848,-62.201C-8.148,-56.539 -10.518,-51.578 -14.061,-46.989C-17.195,-40.941 -21.09,-35.321 -25.943,-30.437C-35.747,-20.569 -54.38,-10.564 -67.587,-7.82C-53.258,0 -23.86,-13.705 -9.857,-33.497C1.225,-49.16 5.256,-73.432 0,-85.687" style="fill:white;fill-rule:nonzero;"/>
            </g>
        </g>
        <g transform="matrix(1,0,0,1,790.355,1047.19)">
            <g id="Layer-8-copy" serif:id="Layer 8 copy">
                <path d="M0,-290.608C-4.265,-289.566 -10.418,-287.649 -17.16,-283.935C-23.9,-280.222 -41.402,-269.11 -48.539,-248.069C-51.157,-240.349 -51.497,-233.896 -51.828,-227.63C-52.149,-221.543 -52.597,-211.514 -49.243,-199.907C-46.862,-191.663 -45.267,-191.984 -36.557,-173.125C-31.841,-162.914 -29.456,-157.697 -28.099,-152.216C-26.32,-145.025 -23.966,-135.514 -27.394,-124.493C-28.416,-121.21 -30.936,-113.472 -38.436,-107.108C-40.558,-105.308 -47.232,-99.808 -57.466,-99.12C-60.316,-98.929 -67.581,-98.832 -75.086,-103.114C-76.176,-103.736 -80.353,-106.208 -84.249,-111.102C-86.044,-113.357 -90.464,-119.498 -92.472,-133.656C-94.576,-148.5 -91.878,-156.983 -93.411,-157.384C-95.59,-157.954 -102.821,-141.29 -107.507,-122.849C-111.456,-107.308 -114.516,-95.267 -112.441,-78.916C-111.404,-70.743 -108.353,-55.733 -98.345,-40.621C-93.475,-33.269 -88.175,-27.728 -84.014,-23.941C-82.304,-22.385 -75.544,-16.352 -65.219,-10.785C-63.848,-10.045 -57.983,-6.925 -49.713,-4.206C-44.837,-2.603 -36.917,0 -35.852,-1.857C-34.842,-3.618 -41.493,-6.775 -45.333,-15.434C-48.444,-22.45 -47.882,-28.956 -47.659,-31.221C-46.725,-40.725 -41.902,-46.963 -40.347,-48.919C-36.431,-53.846 -32.077,-56.498 -29.463,-58.059C-25.358,-60.509 -21.742,-61.756 -19.659,-62.462C-14.019,-64.374 -12.977,-63.691 -6.863,-65.703C-3.046,-66.958 -0.361,-67.864 2.727,-69.993C5.877,-72.164 7.723,-74.419 9.838,-77.003C11.579,-79.129 14.344,-82.571 16.485,-87.472C19.744,-94.932 19.145,-100.594 20.556,-100.683C21.069,-100.715 21.692,-100.002 24.212,-92.955C25.929,-88.156 26.787,-85.756 27.535,-82.985C29.507,-75.685 30.136,-69.902 30.61,-65.37C31.066,-60.999 31.417,-57.643 31.304,-52.962C31.235,-50.082 31.081,-44.916 29.525,-38.377C28.731,-35.039 27.338,-29.37 23.656,-22.903C20.678,-17.674 17.355,-13.944 15.652,-12.053C11.475,-7.415 8.982,-5.899 9.249,-5.472C9.917,-4.404 27.029,-11.489 43.043,-24.326C50.528,-30.325 61.423,-39.24 69.901,-54.918C78.363,-70.569 79.871,-84.552 80.217,-88.535C81.277,-100.732 79.348,-110.078 77.905,-116.815C77.302,-119.626 74.511,-132.115 66.699,-147.052C60.091,-159.687 53.031,-168.066 47.493,-174.562C38.213,-185.445 29.269,-193.311 25.133,-196.922C13.446,-207.125 10.197,-207.928 3.727,-215.902C-0.055,-220.562 -5.056,-226.851 -7.887,-236.528C-10.657,-246.001 -10.005,-254.128 -9.533,-259.408C-8.949,-265.952 -7.585,-271.294 -6.413,-275.008" style="fill:white;fill-rule:nonzero;"/>
            </g>
        </g>
    </g>
    <defs>
        <linearGradient id="_Linear1" x1="0" y1="0" x2="1" y2="0" gradientUnits="userSpaceOnUse" gradientTransform="matrix(1,0,0,-1,0,1.18148e-06)"><stop offset="0" style="stop-color:rgb(92,164,212);stop-opacity:1"/><stop offset="1" style="stop-color:rgb(0,96,184);stop-opacity:1"/></linearGradient>
        <linearGradient id="_Linear2" x1="0" y1="0" x2="1" y2="0" gradientUnits="userSpaceOnUse" gradientTransform="matrix(1,0,0,-1,0,6.75194e-07)"><stop offset="0" style="stop-color:rgb(255,154,26);stop-opacity:1"/><stop offset="1" style="stop-color:rgb(193,67,0);stop-opacity:1"/></linearGradient>
        <linearGradient id="_Linear3" x1="0" y1="0" x2="1" y2="0" gradientUnits="userSpaceOnUse" gradientTransform="matrix(1,0,0,-1,0,0.081076)"><stop offset="0" style="stop-color:rgb(92,164,212);stop-opacity:1"/><stop offset="1" style="stop-color:rgb(0,96,184);stop-opacity:1"/></linearGradient>
    </defs>
</svg>
